# xmcd
#
# Track frame offsets: 
#        150
#        13290
#        27147
#        37967
#        51695
#        64415
#        77125
#        90739
#        104062
#        116160
#        127600
#        143547
#        165262
#        176422
#        189362
#        200390
#        214782
#        232957
#        249557
#        265265
#
# Disc length: 3699 seconds
#
# Revision: 0
# Processed by: cddbd v1.5.2PL0 Copyright (c) Steve Scherf et al.
# Submitted via: ExactAudioCopy v0.95b4
#
DISCID=130e7114
DTITLE=Tanya Tucker - The Definitive Collection
DYEAR=2006
DGENRE=Country
TTITLE0=Delta Dawn
TTITLE1=What's Your Mama's Name
TTITLE2=Would You Lay With Me (In A Field Of Stone)
TTITLE3=Lizzie And The Rainman
TTITLE4=San Antonio Stroll
TTITLE5=Don't Believe My Heart Can Stand Another You
TTITLE6=You've Got Me To Hold On To
TTITLE7=Here's Some Love
TTITLE8=Ridin' Rainbows
TTITLE9=It's A Cowboy Lovin' Night
TTITLE10=Dancing The Night Away
TTITLE11=Texas (When I Die)
TTITLE12=Pecos Promenade
TTITLE13=Can I See You Tonight
TTITLE14=Feel Right
TTITLE15=Just Another Love
TTITLE16=I'll Come Back As Another Woman
TTITLE17=I Won't Take Less Than Your Love
TTITLE18=If It Don't Come Easy
TTITLE19=Strong Enough To Bend
EXTD=
EXTT0=
EXTT1=
EXTT2=
EXTT3=
EXTT4=
EXTT5=
EXTT6=
EXTT7=
EXTT8=
EXTT9=
EXTT10=
EXTT11=
EXTT12=
EXTT13=
EXTT14=
EXTT15=
EXTT16=
EXTT17=
EXTT18=
EXTT19=
PLAYORDER=
